<svg version="1.1" id="Layer_1" xmlns="http://www.w3.org/2000/svg" xmlns:xlink="http://www.w3.org/1999/xlink" x="0px" y="0px"
	 width="100%" viewBox="0 0 400 400" enable-background="new 0 0 400 400" xml:space="preserve">
<path fill="#0F0F0F" opacity="1.000000" stroke="none" 
	d="
M229.000000,401.000000 
	C152.690353,401.000000 76.880722,401.000000 1.035541,401.000000 
	C1.035541,267.732025 1.035541,134.464050 1.035541,1.098030 
	C134.226257,1.098030 267.452606,1.098030 400.839478,1.098030 
	C400.839478,134.333176 400.839478,267.666565 400.839478,401.000000 
	C343.797455,401.000000 286.648712,401.000000 229.000000,401.000000 
M313.920959,262.462219 
	C313.610657,262.379547 313.300354,262.296906 312.062103,262.083954 
	C256.345306,262.083954 200.628479,262.083954 144.555496,262.083954 
	C144.555496,205.271561 144.555496,149.201431 144.555496,92.859573 
	C128.954086,92.859573 113.709656,92.859573 98.241562,92.859573 
	C98.241562,164.816086 98.241562,236.695099 98.241562,308.703033 
	C170.263397,308.703033 242.111237,308.703033 313.883148,308.703033 
	C313.883148,293.274414 313.883148,278.143158 313.920959,262.462219 
z"/>
<path fill="#FFFFFF" opacity="1.000000" stroke="none" 
	d="
M313.883148,263.011871 
	C313.883148,278.143158 313.883148,293.274414 313.883148,308.703033 
	C242.111237,308.703033 170.263397,308.703033 98.241562,308.703033 
	C98.241562,236.695099 98.241562,164.816086 98.241562,92.859573 
	C113.709656,92.859573 128.954086,92.859573 144.555496,92.859573 
	C144.555496,149.201431 144.555496,205.271561 144.555496,262.083954 
	C200.628479,262.083954 256.345306,262.083954 312.626892,262.329102 
	C313.383881,262.780579 313.614380,262.926453 313.883148,263.011871 
z"/>
<path fill="#E1E1E1" opacity="1.000000" stroke="none" 
	d="
M313.902039,262.737061 
	C313.614380,262.926453 313.383881,262.780579 313.090851,262.394257 
	C313.300354,262.296906 313.610657,262.379547 313.902039,262.737061 
z"/>
</svg>